<svg width="500" height="500" viewBox="0 0 680 420" xmlns="http://www.w3.org/2000/svg">
  <defs>
    <linearGradient id="g1" x1="0%" y1="0%" x2="100%" y2="100%">
      <stop offset="0%" stop-color="#4af0c8"/>
      <stop offset="100%" stop-color="#3b6fff"/>
    </linearGradient>
    <linearGradient id="g2" x1="0%" y1="0%" x2="100%" y2="0%">
      <stop offset="0%" stop-color="#4af0c8"/>
      <stop offset="100%" stop-color="#3b6fff"/>
    </linearGradient>
  </defs>

  <!-- BOARD -->
  <rect x="182" y="254" width="318" height="32" rx="16" fill="url(#g2)" transform="rotate(-22 341 270)"/>
  <rect x="182" y="254" width="318" height="32" rx="16" fill="none" stroke="rgba(255,255,255,0.2)" stroke-width="1.5" transform="rotate(-22 341 270)"/>

  <!-- FRONT FOOT + BOOT -->
  <path d="M272 285 L292 273 L298 282 L278 294 Z" fill="url(#g1)"/>

  <!-- FRONT LEG -->
  <line x1="285" y1="278" x2="296" y2="240" stroke="url(#g1)" stroke-width="12" stroke-linecap="round"/>
  <line x1="296" y1="240" x2="318" y2="212" stroke="url(#g1)" stroke-width="13" stroke-linecap="round"/>

  <!-- BACK FOOT + BOOT -->
  <path d="M374 262 L394 250 L400 260 L380 272 Z" fill="url(#g1)"/>

  <!-- BACK LEG -->
  <line x1="387" y1="256" x2="390" y2="218" stroke="url(#g1)" stroke-width="12" stroke-linecap="round"/>
  <line x1="390" y1="218" x2="368" y2="196" stroke="url(#g1)" stroke-width="13" stroke-linecap="round"/>

  <!-- HIPS -->
  <line x1="318" y1="212" x2="368" y2="196" stroke="url(#g1)" stroke-width="12" stroke-linecap="round"/>

  <!-- TORSO -->
  <line x1="343" y1="204" x2="315" y2="148" stroke="url(#g1)" stroke-width="13" stroke-linecap="round"/>

  <!-- FRONT ARM -->
  <line x1="326" y1="168" x2="282" y2="196" stroke="url(#g1)" stroke-width="9" stroke-linecap="round"/>
  <line x1="282" y1="196" x2="256" y2="184" stroke="url(#g1)" stroke-width="8" stroke-linecap="round"/>
  <circle cx="251" cy="182" r="6" fill="url(#g1)"/>

  <!-- BACK ARM -->
  <line x1="334" y1="162" x2="370" y2="138" stroke="url(#g1)" stroke-width="9" stroke-linecap="round"/>
  <line x1="370" y1="138" x2="386" y2="116" stroke="url(#g1)" stroke-width="8" stroke-linecap="round"/>

  <!-- HEAD -->
  <circle cx="310" cy="132" r="22" fill="none" stroke="url(#g1)" stroke-width="6"/>
  <path d="M290 132 Q289 108 310 106 Q331 106 332 130" fill="url(#g1)"/>
  <path d="M294 134 Q310 128 326 134" fill="none" stroke="rgba(255,255,255,0.5)" stroke-width="3.5" stroke-linecap="round"/>

  <!-- SNOW SPRAY -->
  <path d="M210 338 Q188 326 172 334" fill="none" stroke="#4af0c8" stroke-width="3" stroke-linecap="round" opacity="0.7"/>
  <path d="M204 352 Q178 342 160 350" fill="none" stroke="#4af0c8" stroke-width="2" stroke-linecap="round" opacity="0.5"/>
  <path d="M218 324 Q202 312 190 318" fill="none" stroke="#3b6fff" stroke-width="2" stroke-linecap="round" opacity="0.4"/>
  <circle cx="164" cy="342" r="3" fill="#4af0c8" opacity="0.5"/>
  <circle cx="178" cy="330" r="2" fill="#4af0c8" opacity="0.4"/>
  <circle cx="190" cy="356" r="2.5" fill="#3b6fff" opacity="0.35"/>
  <circle cx="156" cy="354" r="1.8" fill="#4af0c8" opacity="0.3"/>

  <!-- SPEED LINES -->
  <line x1="488" y1="248" x2="528" y2="238" stroke="#4af0c8" stroke-width="2.5" stroke-linecap="round" opacity="0.45"/>
  <line x1="492" y1="262" x2="538" y2="253" stroke="#3b6fff" stroke-width="2" stroke-linecap="round" opacity="0.35"/>
  <line x1="485" y1="235" x2="520" y2="226" stroke="#4af0c8" stroke-width="1.5" stroke-linecap="round" opacity="0.25"/>

</svg>
